<svg xmlns="http://www.w3.org/2000/svg" viewBox="0 0 200 200"><g transform="rotate(45 100 100)" fill="none" stroke-linecap="round" stroke-linejoin="round">
  <rect x="38" y="38" width="78" height="78" rx="8" stroke="#BB9549" stroke-width="11"/>
  <rect x="84" y="38" width="78" height="78" rx="8" stroke="#BB9549" stroke-width="11"/>
  <rect x="38" y="84" width="78" height="78" rx="8" stroke="#BB9549" stroke-width="11"/>
  <rect x="84" y="84" width="78" height="78" rx="8" stroke="#BB9549" stroke-width="11"/>
  <rect x="70" y="70" width="60" height="60" rx="8" stroke="#275671" stroke-width="11"/>
  <line x1="100" y1="20" x2="100" y2="44" stroke="#3CA9AF" stroke-width="11"/>
  <line x1="100" y1="156" x2="100" y2="180" stroke="#3C56A6" stroke-width="11"/>
  <line x1="20" y1="100" x2="44" y2="100" stroke="#3C56A6" stroke-width="11"/>
  <line x1="156" y1="100" x2="180" y2="100" stroke="#3CA9AF" stroke-width="11"/>
  <line x1="64" y1="64" x2="80" y2="80" stroke="#3F7DA3" stroke-width="11"/>
  <line x1="120" y1="120" x2="136" y2="136" stroke="#3F7DA3" stroke-width="11"/>
  <line x1="120" y1="80" x2="136" y2="64" stroke="#193847" stroke-width="11"/>
  <line x1="64" y1="136" x2="80" y2="120" stroke="#193847" stroke-width="11"/>
</g></svg>